<?xml version="1.0" encoding="UTF-8"?>
<!DOCTYPE svg PUBLIC "-//W3C//DTD SVG 1.1//EN" "http://www.w3.org/Graphics/SVG/1.1/DTD/svg11.dtd">
<svg xmlns="http://www.w3.org/2000/svg" version="1.1" width="240px" height="240px" style="shape-rendering:geometricPrecision; text-rendering:geometricPrecision; image-rendering:optimizeQuality; fill-rule:evenodd; clip-rule:evenodd" xmlns:xlink="http://www.w3.org/1999/xlink">
<g><path style="opacity:1" fill="#fefefe" d="M -0.5,-0.5 C 79.5,-0.5 159.5,-0.5 239.5,-0.5C 239.5,79.5 239.5,159.5 239.5,239.5C 159.5,239.5 79.5,239.5 -0.5,239.5C -0.5,159.5 -0.5,79.5 -0.5,-0.5 Z"/></g>
<g><path style="opacity:1" fill="#0ea3dc" d="M 91.5,31.5 C 90.9384,37.0489 90.605,42.7156 90.5,48.5C 91.5,50.1667 92.8333,51.5 94.5,52.5C 93.3966,52.9976 92.3966,53.3309 91.5,53.5C 93.1932,54.2283 94.6932,55.2283 96,56.5C 96.3333,56.1667 96.6667,55.8333 97,55.5C 96.566,59.7252 98.3993,62.2252 102.5,63C 100.342,63.9589 100.009,65.4589 101.5,67.5C 101.457,71.1119 99.9565,73.7786 97,75.5C 95.8736,78.7227 95.7069,81.8893 96.5,85C 93.2526,88.9907 91.2526,93.4907 90.5,98.5C 88.0724,95.7476 86.0724,92.7476 84.5,89.5C 83.621,86.8828 83.7876,84.2161 85,81.5C 85.3333,81.8333 85.6667,82.1667 86,82.5C 89.9343,80.7691 91.2676,77.7691 90,73.5C 86.1953,70.1942 83.362,66.1942 81.5,61.5C 80.8256,56.4723 79.4923,51.8056 77.5,47.5C 78.8333,47.5 80.1667,47.5 81.5,47.5C 81.5,46.1667 81.5,44.8333 81.5,43.5C 80.1667,43.5 78.8333,43.5 77.5,43.5C 77.6822,41.3254 78.3489,39.3254 79.5,37.5C 79.1667,36.8333 78.8333,36.1667 78.5,35.5C 74.012,38.5917 73.3453,42.4251 76.5,47C 73.3876,47.8505 73.0542,49.0172 75.5,50.5C 74.2572,54.7686 73.2572,59.102 72.5,63.5C 71.5745,64.6405 70.7412,64.6405 70,63.5C 69.5026,60.854 69.3359,58.1873 69.5,55.5C 66.6118,55.2196 65.1118,56.5529 65,59.5C 63.6712,66.092 63.1712,72.7586 63.5,79.5C 62.8333,79.5 62.1667,79.5 61.5,79.5C 60.4356,62.5284 65.2689,47.5284 76,34.5C 85.5862,22.8078 97.0862,13.6412 110.5,7C 111.5,6.33333 112.5,6.33333 113.5,7C 103.822,13.1721 96.4884,21.3388 91.5,31.5 Z"/></g>
<g><path style="opacity:1" fill="#059fdd" d="M 84.5,89.5 C 81.4633,87.8141 80.13,88.8141 80.5,92.5C 79.5,92.5 78.5,92.5 77.5,92.5C 77.8204,89.1016 77.487,85.7683 76.5,82.5C 75.4008,86.1789 74.4008,89.8455 73.5,93.5C 72.7952,98.8057 74.4619,103.472 78.5,107.5C 77.5207,108.765 76.5207,110.099 75.5,111.5C 74.5,108.833 73.5,106.167 72.5,103.5C 71.914,103.709 71.414,104.043 71,104.5C 70.6232,103.058 69.7899,102.058 68.5,101.5C 68.7709,99.6203 68.1042,98.287 66.5,97.5C 65.596,96.791 65.2627,95.791 65.5,94.5C 65.634,92.7085 65.3007,91.0418 64.5,89.5C 64.8128,85.9581 64.4794,82.6248 63.5,79.5C 63.1712,72.7586 63.6712,66.092 65,59.5C 65.1118,56.5529 66.6118,55.2196 69.5,55.5C 69.3359,58.1873 69.5026,60.854 70,63.5C 70.7412,64.6405 71.5745,64.6405 72.5,63.5C 73.2572,59.102 74.2572,54.7686 75.5,50.5C 73.0542,49.0172 73.3876,47.8505 76.5,47C 73.3453,42.4251 74.012,38.5917 78.5,35.5C 78.8333,36.1667 79.1667,36.8333 79.5,37.5C 78.3489,39.3254 77.6822,41.3254 77.5,43.5C 78.8333,43.5 80.1667,43.5 81.5,43.5C 81.5,44.8333 81.5,46.1667 81.5,47.5C 80.1667,47.5 78.8333,47.5 77.5,47.5C 79.4923,51.8056 80.8256,56.4723 81.5,61.5C 83.362,66.1942 86.1953,70.1942 90,73.5C 91.2676,77.7691 89.9343,80.7691 86,82.5C 85.6667,82.1667 85.3333,81.8333 85,81.5C 83.7876,84.2161 83.621,86.8828 84.5,89.5 Z"/></g>
<g><path style="opacity:1" fill="#d9fafe" d="M 92.5,40.5 C 94.7129,44.5706 97.2129,48.5706 100,52.5C 102.998,54.3329 105.498,56.6662 107.5,59.5C 101.57,56.7383 97.0701,52.405 94,46.5C 93.187,44.5643 92.687,42.5643 92.5,40.5 Z"/></g>
<g><path style="opacity:1" fill="#2daadf" d="M 91.5,31.5 C 91.19,34.7131 91.5233,37.7131 92.5,40.5C 92.687,42.5643 93.187,44.5643 94,46.5C 97.0701,52.405 101.57,56.7383 107.5,59.5C 110.079,62.1348 113.079,64.3015 116.5,66C 131.068,72.2836 145.068,79.6169 158.5,88C 160.041,89.3712 161.375,90.8712 162.5,92.5C 160.453,92.4889 158.453,92.1556 156.5,91.5C 155.833,91.8333 155.167,92.1667 154.5,92.5C 155.325,93.3857 156.325,93.719 157.5,93.5C 157.5,95.1667 157.5,96.8333 157.5,98.5C 158.675,98.281 159.675,98.6143 160.5,99.5C 159.754,100.736 159.421,102.07 159.5,103.5C 157.737,100.98 155.737,98.6471 153.5,96.5C 150.86,93.1938 147.86,90.1938 144.5,87.5C 144.167,87.5 143.833,87.5 143.5,87.5C 137.418,82.2803 130.751,77.7803 123.5,74C 120.436,72.6335 117.436,72.1335 114.5,72.5C 115.5,73.8333 116.5,75.1667 117.5,76.5C 115.389,77.8485 113.555,77.5152 112,75.5C 111.558,77.6785 110.558,78.3452 109,77.5C 107.533,80.2664 105.7,82.7664 103.5,85C 104.022,85.5613 104.355,86.228 104.5,87C 102.647,89.185 100.48,91.0183 98,92.5C 97.1376,94.087 96.4709,95.7536 96,97.5C 95.1739,95.5946 94.0072,95.2612 92.5,96.5C 94.6227,98.7454 95.6227,101.412 95.5,104.5C 93.359,102.878 91.6924,100.878 90.5,98.5C 91.2526,93.4907 93.2526,88.9907 96.5,85C 95.7069,81.8893 95.8736,78.7227 97,75.5C 99.9565,73.7786 101.457,71.1119 101.5,67.5C 100.009,65.4589 100.342,63.9589 102.5,63C 98.3993,62.2252 96.566,59.7252 97,55.5C 96.6667,55.8333 96.3333,56.1667 96,56.5C 94.6932,55.2283 93.1932,54.2283 91.5,53.5C 92.3966,53.3309 93.3966,52.9976 94.5,52.5C 92.8333,51.5 91.5,50.1667 90.5,48.5C 90.605,42.7156 90.9384,37.0489 91.5,31.5 Z"/></g>
<g><path style="opacity:1" fill="#2998ae" d="M 61.5,79.5 C 62.1667,79.5 62.8333,79.5 63.5,79.5C 64.4794,82.6248 64.8128,85.9581 64.5,89.5C 63.6862,87.369 63.1862,85.0356 63,82.5C 62.6174,81.944 62.1174,81.6107 61.5,81.5C 61.5,81.1667 61.5,80.8333 61.5,80.5C 61.5,80.1667 61.5,79.8333 61.5,79.5 Z"/></g>
<g><path style="opacity:1" fill="#71b26a" d="M 61.5,81.5 C 62.1174,81.6107 62.6174,81.944 63,82.5C 63.1862,85.0356 63.6862,87.369 64.5,89.5C 65.3007,91.0418 65.634,92.7085 65.5,94.5C 63.0713,90.6536 61.7379,86.3202 61.5,81.5 Z"/></g>
<g><path style="opacity:1" fill="#0d99d4" d="M 84.5,89.5 C 86.0724,92.7476 88.0724,95.7476 90.5,98.5C 91.6924,100.878 93.359,102.878 95.5,104.5C 97.5491,107.55 100.216,109.883 103.5,111.5C 107.479,115.494 112.145,118.494 117.5,120.5C 122.847,122.924 128.513,124.591 134.5,125.5C 141.838,126.141 148.838,124.975 155.5,122C 159.993,118.263 161.659,113.43 160.5,107.5C 162.453,108.244 163.453,109.744 163.5,112C 163.185,115.441 162.185,118.608 160.5,121.5C 157.886,121.277 156.219,122.444 155.5,125C 151.504,125.032 148.004,126.199 145,128.5C 138.668,126.795 132.168,125.962 125.5,126C 123.361,124.596 121.028,123.763 118.5,123.5C 114.847,124.773 111.181,125.94 107.5,127C 110.171,128.903 113.171,129.736 116.5,129.5C 117.6,130.605 118.267,131.938 118.5,133.5C 114.042,131.771 109.709,129.771 105.5,127.5C 99.1381,123.317 93.1381,118.65 87.5,113.5C 81.8358,107.495 77.1692,100.829 73.5,93.5C 74.4008,89.8455 75.4008,86.1789 76.5,82.5C 77.487,85.7683 77.8204,89.1016 77.5,92.5C 78.5,92.5 79.5,92.5 80.5,92.5C 80.13,88.8141 81.4633,87.8141 84.5,89.5 Z"/></g>
<g><path style="opacity:1" fill="#a5c12a" d="M 61.5,80.5 C 61.5,80.8333 61.5,81.1667 61.5,81.5C 61.7379,86.3202 63.0713,90.6536 65.5,94.5C 65.2627,95.791 65.596,96.791 66.5,97.5C 66.6596,99.153 67.3263,100.486 68.5,101.5C 68.5,102.167 68.5,102.833 68.5,103.5C 68.5,104.833 68.5,106.167 68.5,107.5C 65.1734,103.403 62.1734,103.737 59.5,108.5C 58.834,111.358 58.1674,114.358 57.5,117.5C 56.2528,115.994 56.2528,114.494 57.5,113C 56.2068,112.51 54.8734,112.343 53.5,112.5C 49.7252,102.037 51.0585,92.3704 57.5,83.5C 58.8518,82.4756 60.1851,81.4756 61.5,80.5 Z"/></g>
<g><path style="opacity:1" fill="#84c3eb" d="M 143.5,87.5 C 143.833,87.5 144.167,87.5 144.5,87.5C 142.716,89.9483 141.382,92.615 140.5,95.5C 135.241,99.4017 129.908,103.402 124.5,107.5C 123.571,108.689 123.238,110.022 123.5,111.5C 121.571,111.231 119.905,111.731 118.5,113C 120.5,113.333 122.5,113.667 124.5,114C 122.94,116.659 120.607,117.826 117.5,117.5C 117.5,118.5 117.5,119.5 117.5,120.5C 112.145,118.494 107.479,115.494 103.5,111.5C 104.55,111.095 104.55,110.429 103.5,109.5C 104.325,108.614 105.325,108.281 106.5,108.5C 106.343,107.127 106.51,105.793 107,104.5C 108,103.167 109,103.167 110,104.5C 113.018,101.596 112.851,99.0957 109.5,97C 111.076,96.5604 112.41,95.727 113.5,94.5C 115.198,95.6808 116.865,95.6808 118.5,94.5C 120.793,90.2424 123.793,86.5758 127.5,83.5C 132.323,81.5937 136.323,82.5937 139.5,86.5C 140.689,87.4287 142.022,87.762 143.5,87.5 Z"/></g>
<g><path style="opacity:1" fill="#62b7e7" d="M 143.5,87.5 C 142.022,87.762 140.689,87.4287 139.5,86.5C 136.323,82.5937 132.323,81.5937 127.5,83.5C 123.793,86.5758 120.793,90.2424 118.5,94.5C 116.865,95.6808 115.198,95.6808 113.5,94.5C 112.41,95.727 111.076,96.5604 109.5,97C 112.851,99.0957 113.018,101.596 110,104.5C 109,103.167 108,103.167 107,104.5C 106.51,105.793 106.343,107.127 106.5,108.5C 105.325,108.281 104.325,108.614 103.5,109.5C 104.55,110.429 104.55,111.095 103.5,111.5C 100.216,109.883 97.5491,107.55 95.5,104.5C 95.6227,101.412 94.6227,98.7454 92.5,96.5C 94.0072,95.2612 95.1739,95.5946 96,97.5C 96.4709,95.7536 97.1376,94.087 98,92.5C 100.48,91.0183 102.647,89.185 104.5,87C 104.355,86.228 104.022,85.5613 103.5,85C 105.7,82.7664 107.533,80.2664 109,77.5C 110.558,78.3452 111.558,77.6785 112,75.5C 113.555,77.5152 115.389,77.8485 117.5,76.5C 116.5,75.1667 115.5,73.8333 114.5,72.5C 117.436,72.1335 120.436,72.6335 123.5,74C 130.751,77.7803 137.418,82.2803 143.5,87.5 Z"/></g>
<g><path style="opacity:1" fill="#2a9686" d="M 66.5,97.5 C 68.1042,98.287 68.7709,99.6203 68.5,101.5C 67.3263,100.486 66.6596,99.153 66.5,97.5 Z"/></g>
<g><path style="opacity:1" fill="#a7d1f1" d="M 155.5,103.5 C 154.448,103.351 153.448,103.517 152.5,104C 153.952,108.536 155.785,109.036 158,105.5C 159.067,108.598 158.067,110.598 155,111.5C 153.016,111.259 151.183,110.592 149.5,109.5C 149.06,110.698 148.727,111.865 148.5,113C 146.5,113.333 144.5,113.667 142.5,114C 143.833,115 143.833,116 142.5,117C 137.718,117.119 133.051,117.785 128.5,119C 133.059,118.877 137.059,120.211 140.5,123C 138.292,123.191 136.292,123.691 134.5,124.5C 131.689,124.174 129.022,123.341 126.5,122C 128.008,117.346 131.342,115.013 136.5,115C 133.576,114.012 130.576,113.346 127.5,113C 128,112.5 128.5,112 129,111.5C 131.952,111.386 134.952,111.386 138,111.5C 142.999,108 147.166,103.667 150.5,98.5C 152.581,99.8003 154.248,101.467 155.5,103.5 Z"/></g>
<g><path style="opacity:1" fill="#5abbef" d="M 73.5,93.5 C 77.1692,100.829 81.8358,107.495 87.5,113.5C 86.8333,114.167 86.1667,114.833 85.5,115.5C 82.4503,113.451 80.117,110.784 78.5,107.5C 74.4619,103.472 72.7952,98.8057 73.5,93.5 Z"/></g>
<g><path style="opacity:1" fill="#96caee" d="M 144.5,87.5 C 147.86,90.1938 150.86,93.1938 153.5,96.5C 154.441,98.4664 155.441,100.466 156.5,102.5C 156.376,103.107 156.043,103.44 155.5,103.5C 154.248,101.467 152.581,99.8003 150.5,98.5C 147.166,103.667 142.999,108 138,111.5C 134.952,111.386 131.952,111.386 129,111.5C 128.5,112 128,112.5 127.5,113C 130.576,113.346 133.576,114.012 136.5,115C 131.342,115.013 128.008,117.346 126.5,122C 129.022,123.341 131.689,124.174 134.5,124.5C 134.5,124.833 134.5,125.167 134.5,125.5C 128.513,124.591 122.847,122.924 117.5,120.5C 117.5,119.5 117.5,118.5 117.5,117.5C 120.607,117.826 122.94,116.659 124.5,114C 122.5,113.667 120.5,113.333 118.5,113C 119.905,111.731 121.571,111.231 123.5,111.5C 123.238,110.022 123.571,108.689 124.5,107.5C 129.908,103.402 135.241,99.4017 140.5,95.5C 141.382,92.615 142.716,89.9483 144.5,87.5 Z"/></g>
<g><path style="opacity:1" fill="#a2cb65" d="M 68.5,103.5 C 71.3346,107.164 73.668,111.164 75.5,115.5C 74.0755,113.969 73.4088,114.302 73.5,116.5C 71.4405,113.76 69.7738,110.76 68.5,107.5C 68.5,106.167 68.5,104.833 68.5,103.5 Z"/></g>
<g><path style="opacity:1" fill="#b2d9f3" d="M 153.5,96.5 C 155.737,98.6471 157.737,100.98 159.5,103.5C 159.433,104.959 159.766,106.292 160.5,107.5C 161.659,113.43 159.993,118.263 155.5,122C 148.838,124.975 141.838,126.141 134.5,125.5C 134.5,125.167 134.5,124.833 134.5,124.5C 136.292,123.691 138.292,123.191 140.5,123C 137.059,120.211 133.059,118.877 128.5,119C 133.051,117.785 137.718,117.119 142.5,117C 143.833,116 143.833,115 142.5,114C 144.5,113.667 146.5,113.333 148.5,113C 148.727,111.865 149.06,110.698 149.5,109.5C 151.183,110.592 153.016,111.259 155,111.5C 158.067,110.598 159.067,108.598 158,105.5C 155.785,109.036 153.952,108.536 152.5,104C 153.448,103.517 154.448,103.351 155.5,103.5C 156.043,103.44 156.376,103.107 156.5,102.5C 155.441,100.466 154.441,98.4664 153.5,96.5 Z"/></g>
<g><path style="opacity:1" fill="#158cc3" d="M 68.5,101.5 C 69.7899,102.058 70.6232,103.058 71,104.5C 71.414,104.043 71.914,103.709 72.5,103.5C 73.5,106.167 74.5,108.833 75.5,111.5C 76.5207,110.099 77.5207,108.765 78.5,107.5C 80.117,110.784 82.4503,113.451 85.5,115.5C 86.4839,117.48 87.8173,119.147 89.5,120.5C 87.6115,121.604 85.9448,122.937 84.5,124.5C 81.1667,121.833 78.1667,118.833 75.5,115.5C 73.668,111.164 71.3346,107.164 68.5,103.5C 68.5,102.833 68.5,102.167 68.5,101.5 Z"/></g>
<g><path style="opacity:1" fill="#209dd4" d="M 162.5,92.5 C 172.991,99.5047 179.824,109.171 183,121.5C 183.801,124.367 183.634,127.034 182.5,129.5C 182.802,126.941 182.468,124.607 181.5,122.5C 179.832,120.521 179.166,118.188 179.5,115.5C 179.291,114.078 178.791,112.745 178,111.5C 176.887,112.711 175.72,112.711 174.5,111.5C 173.223,114.034 173.223,116.534 174.5,119C 173.095,120.269 171.429,120.769 169.5,120.5C 169.5,117.5 169.5,114.5 169.5,111.5C 173.208,110.449 173.041,109.116 169,107.5C 168.05,108.022 167.216,108.689 166.5,109.5C 166.167,108.833 165.833,108.167 165.5,107.5C 167.187,105.663 168.854,103.83 170.5,102C 169.615,99.8434 167.948,99.0101 165.5,99.5C 165.5,100.833 165.5,102.167 165.5,103.5C 164.5,103.5 163.5,103.5 162.5,103.5C 162.575,99.8707 162.575,96.204 162.5,92.5 Z"/></g>
<g><path style="opacity:1" fill="#e3eeac" d="M 68.5,107.5 C 69.7738,110.76 71.4405,113.76 73.5,116.5C 73.8333,117.833 74.1667,119.167 74.5,120.5C 73.2502,120.423 72.4169,119.756 72,118.5C 71.6667,118.833 71.3333,119.167 71,119.5C 70.5045,117.527 70.3379,115.527 70.5,113.5C 69.5,113.5 68.5,113.5 67.5,113.5C 67.5,114.833 67.5,116.167 67.5,117.5C 66.5,117.5 65.5,117.5 64.5,117.5C 65.2407,114.366 66.2407,111.366 67.5,108.5C 65.1667,108.5 62.8333,108.5 60.5,108.5C 60.2267,110.451 60.8934,111.951 62.5,113C 61.6198,114.356 61.2865,115.856 61.5,117.5C 59.7345,114.877 59.0679,111.877 59.5,108.5C 62.1734,103.737 65.1734,103.403 68.5,107.5 Z"/></g>
<g><path style="opacity:1" fill="#0397d8" d="M 162.5,92.5 C 162.575,96.204 162.575,99.8707 162.5,103.5C 163.5,103.5 164.5,103.5 165.5,103.5C 165.5,102.167 165.5,100.833 165.5,99.5C 167.948,99.0101 169.615,99.8434 170.5,102C 168.854,103.83 167.187,105.663 165.5,107.5C 165.833,108.167 166.167,108.833 166.5,109.5C 167.216,108.689 168.05,108.022 169,107.5C 173.041,109.116 173.208,110.449 169.5,111.5C 169.5,114.5 169.5,117.5 169.5,120.5C 171.429,120.769 173.095,120.269 174.5,119C 173.223,116.534 173.223,114.034 174.5,111.5C 175.72,112.711 176.887,112.711 178,111.5C 178.791,112.745 179.291,114.078 179.5,115.5C 178.4,117.277 177.566,119.277 177,121.5C 176.667,121.167 176.333,120.833 176,120.5C 173.704,122.057 171.538,123.724 169.5,125.5C 158.246,128.059 147.079,130.726 136,133.5C 130.99,132.659 126.99,130.992 124,128.5C 123.333,129.167 122.667,129.833 122,130.5C 120.234,129.767 118.401,129.433 116.5,129.5C 113.171,129.736 110.171,128.903 107.5,127C 111.181,125.94 114.847,124.773 118.5,123.5C 121.028,123.763 123.361,124.596 125.5,126C 132.168,125.962 138.668,126.795 145,128.5C 148.004,126.199 151.504,125.032 155.5,125C 156.219,122.444 157.886,121.277 160.5,121.5C 162.185,118.608 163.185,115.441 163.5,112C 163.453,109.744 162.453,108.244 160.5,107.5C 159.766,106.292 159.433,104.959 159.5,103.5C 159.421,102.07 159.754,100.736 160.5,99.5C 159.675,98.6143 158.675,98.281 157.5,98.5C 157.5,96.8333 157.5,95.1667 157.5,93.5C 156.325,93.719 155.325,93.3857 154.5,92.5C 155.167,92.1667 155.833,91.8333 156.5,91.5C 158.453,92.1556 160.453,92.4889 162.5,92.5 Z"/></g>
<g><path style="opacity:1" fill="#92cbf5" d="M 87.5,113.5 C 93.1381,118.65 99.1381,123.317 105.5,127.5C 104.262,127.81 104.262,128.31 105.5,129C 104.552,129.483 103.552,129.649 102.5,129.5C 97.673,127.25 93.3396,124.25 89.5,120.5C 87.8173,119.147 86.4839,117.48 85.5,115.5C 86.1667,114.833 86.8333,114.167 87.5,113.5 Z"/></g>
<g><path style="opacity:1" fill="#b2c73e" d="M 59.5,108.5 C 59.0679,111.877 59.7345,114.877 61.5,117.5C 63.2292,119.95 64.7292,122.617 66,125.5C 68.705,128.036 71.205,130.703 73.5,133.5C 74.1667,134.5 74.8333,135.5 75.5,136.5C 75.631,137.239 75.4643,137.906 75,138.5C 74.3292,137.748 73.4959,137.414 72.5,137.5C 70.5956,137.262 69.2623,136.262 68.5,134.5C 64.4283,130.435 60.7617,126.102 57.5,121.5C 56.1667,118.5 54.8333,115.5 53.5,112.5C 54.8734,112.343 56.2068,112.51 57.5,113C 56.2528,114.494 56.2528,115.994 57.5,117.5C 58.1674,114.358 58.834,111.358 59.5,108.5 Z"/></g>
<g><path style="opacity:1" fill="#0588cb" d="M 179.5,115.5 C 179.166,118.188 179.832,120.521 181.5,122.5C 181.5,123.167 181.5,123.833 181.5,124.5C 179.627,125.863 177.961,127.53 176.5,129.5C 175.808,128.975 175.308,128.308 175,127.5C 162.87,133.332 150.037,136.665 136.5,137.5C 136.512,140.142 135.179,141.475 132.5,141.5C 132.586,140.504 132.252,139.671 131.5,139C 126.846,137.666 122.513,135.833 118.5,133.5C 118.267,131.938 117.6,130.605 116.5,129.5C 118.401,129.433 120.234,129.767 122,130.5C 122.667,129.833 123.333,129.167 124,128.5C 126.99,130.992 130.99,132.659 136,133.5C 147.079,130.726 158.246,128.059 169.5,125.5C 171.538,123.724 173.704,122.057 176,120.5C 176.333,120.833 176.667,121.167 177,121.5C 177.566,119.277 178.4,117.277 179.5,115.5 Z"/></g>
<g><path style="opacity:1" fill="#f8fbdf" d="M 57.5,121.5 C 60.7617,126.102 64.4283,130.435 68.5,134.5C 65.6659,133.272 62.8326,131.939 60,130.5C 58.8502,127.582 58.0169,124.582 57.5,121.5 Z"/></g>
<g><path style="opacity:1" fill="#e5ecba" d="M 74.5,120.5 C 77.5767,125.648 80.91,130.648 84.5,135.5C 84.5,136.5 84.5,137.5 84.5,138.5C 82.8008,138.66 81.1341,138.494 79.5,138C 77.8863,135.873 75.8863,134.373 73.5,133.5C 71.205,130.703 68.705,128.036 66,125.5C 64.7292,122.617 63.2292,119.95 61.5,117.5C 61.2865,115.856 61.6198,114.356 62.5,113C 60.8934,111.951 60.2267,110.451 60.5,108.5C 62.8333,108.5 65.1667,108.5 67.5,108.5C 66.2407,111.366 65.2407,114.366 64.5,117.5C 65.5,117.5 66.5,117.5 67.5,117.5C 67.5,116.167 67.5,114.833 67.5,113.5C 68.5,113.5 69.5,113.5 70.5,113.5C 70.3379,115.527 70.5045,117.527 71,119.5C 71.3333,119.167 71.6667,118.833 72,118.5C 72.4169,119.756 73.2502,120.423 74.5,120.5 Z"/></g>
<g><path style="opacity:1" fill="#147fbb" d="M 89.5,120.5 C 93.3396,124.25 97.673,127.25 102.5,129.5C 104.884,131.885 107.55,133.885 110.5,135.5C 106.998,135.076 104.665,136.41 103.5,139.5C 101.938,139.267 100.605,138.6 99.5,137.5C 99.0269,136.094 98.0269,135.427 96.5,135.5C 92.5428,132.878 88.8761,129.878 85.5,126.5C 85.1667,125.833 84.8333,125.167 84.5,124.5C 85.9448,122.937 87.6115,121.604 89.5,120.5 Z"/></g>
<g><path style="opacity:1" fill="#0478bc" d="M 181.5,124.5 C 181.455,128.346 180.622,132.013 179,135.5C 176.699,135.699 174.533,136.199 172.5,137C 173.5,137.333 174.5,137.667 175.5,138C 173.413,138.792 171.579,139.959 170,141.5C 169.333,138.833 168.667,138.833 168,141.5C 166.333,141.167 164.667,140.833 163,140.5C 157.208,143.035 151.041,144.201 144.5,144C 144.167,144.333 143.833,144.667 143.5,145C 145.246,145.471 146.913,146.138 148.5,147C 147.667,147.167 146.833,147.333 146,147.5C 143.321,146.217 140.488,145.217 137.5,144.5C 134.536,145.472 131.536,145.638 128.5,145C 127.692,143.294 126.359,142.461 124.5,142.5C 124.5,143.5 124.5,144.5 124.5,145.5C 122.983,145.489 121.816,144.823 121,143.5C 117.03,144.901 113.53,144.068 110.5,141C 108.26,140.023 105.927,139.523 103.5,139.5C 104.665,136.41 106.998,135.076 110.5,135.5C 117.006,137.754 123.506,140.087 130,142.5C 130.902,142.257 131.735,141.923 132.5,141.5C 135.179,141.475 136.512,140.142 136.5,137.5C 150.037,136.665 162.87,133.332 175,127.5C 175.308,128.308 175.808,128.975 176.5,129.5C 177.961,127.53 179.627,125.863 181.5,124.5 Z"/></g>
<g><path style="opacity:1" fill="#c0d158" d="M 75.5,115.5 C 78.1667,118.833 81.1667,121.833 84.5,124.5C 84.8333,125.167 85.1667,125.833 85.5,126.5C 85.5,127.833 85.5,129.167 85.5,130.5C 89.1924,130.695 91.0258,132.695 91,136.5C 92.2051,137.071 93.3717,137.738 94.5,138.5C 95.2897,141.352 96.9564,143.519 99.5,145C 104.115,148.298 108.782,151.131 113.5,153.5C 113.452,156.292 114.785,158.125 117.5,159C 114.189,158.785 110.856,158.785 107.5,159C 108.756,159.417 109.423,160.25 109.5,161.5C 108.833,161.5 108.167,161.5 107.5,161.5C 101.519,157.506 95.1854,154.006 88.5,151C 82.4944,147.276 77.1611,142.776 72.5,137.5C 73.4959,137.414 74.3292,137.748 75,138.5C 75.4643,137.906 75.631,137.239 75.5,136.5C 83.8656,143.887 93.1989,149.554 103.5,153.5C 107.144,153.286 107.477,152.119 104.5,150C 95.9742,147.628 89.3076,142.795 84.5,135.5C 80.91,130.648 77.5767,125.648 74.5,120.5C 74.1667,119.167 73.8333,117.833 73.5,116.5C 73.4088,114.302 74.0755,113.969 75.5,115.5 Z"/></g>
<g><path style="opacity:1" fill="#b1d8f6" d="M 105.5,127.5 C 109.709,129.771 114.042,131.771 118.5,133.5C 122.513,135.833 126.846,137.666 131.5,139C 132.252,139.671 132.586,140.504 132.5,141.5C 131.735,141.923 130.902,142.257 130,142.5C 123.506,140.087 117.006,137.754 110.5,135.5C 107.55,133.885 104.884,131.885 102.5,129.5C 103.552,129.649 104.552,129.483 105.5,129C 104.262,128.31 104.262,127.81 105.5,127.5 Z"/></g>
<g><path style="opacity:1" fill="#579786" d="M 96.5,135.5 C 98.0269,135.427 99.0269,136.094 99.5,137.5C 97.9731,137.573 96.9731,136.906 96.5,135.5 Z"/></g>
<g><path style="opacity:1" fill="#dee79f" d="M 73.5,133.5 C 75.8863,134.373 77.8863,135.873 79.5,138C 81.1341,138.494 82.8008,138.66 84.5,138.5C 84.5,137.5 84.5,136.5 84.5,135.5C 89.3076,142.795 95.9742,147.628 104.5,150C 107.477,152.119 107.144,153.286 103.5,153.5C 93.1989,149.554 83.8656,143.887 75.5,136.5C 74.8333,135.5 74.1667,134.5 73.5,133.5 Z"/></g>
<g><path style="opacity:1" fill="#0668b0" d="M 181.5,122.5 C 182.468,124.607 182.802,126.941 182.5,129.5C 181.165,136.491 177.498,141.825 171.5,145.5C 169.821,145.285 168.821,145.952 168.5,147.5C 167.833,147.5 167.167,147.5 166.5,147.5C 164.236,148.219 161.903,148.552 159.5,148.5C 151.5,148.5 143.5,148.5 135.5,148.5C 132.615,148.806 129.948,148.473 127.5,147.5C 127.179,145.952 126.179,145.285 124.5,145.5C 124.5,144.5 124.5,143.5 124.5,142.5C 126.359,142.461 127.692,143.294 128.5,145C 131.536,145.638 134.536,145.472 137.5,144.5C 140.488,145.217 143.321,146.217 146,147.5C 146.833,147.333 147.667,147.167 148.5,147C 146.913,146.138 145.246,145.471 143.5,145C 143.833,144.667 144.167,144.333 144.5,144C 151.041,144.201 157.208,143.035 163,140.5C 164.667,140.833 166.333,141.167 168,141.5C 168.667,138.833 169.333,138.833 170,141.5C 171.579,139.959 173.413,138.792 175.5,138C 174.5,137.667 173.5,137.333 172.5,137C 174.533,136.199 176.699,135.699 179,135.5C 180.622,132.013 181.455,128.346 181.5,124.5C 181.5,123.833 181.5,123.167 181.5,122.5 Z"/></g>
<g><path style="opacity:1" fill="#18709e" d="M 103.5,139.5 C 105.927,139.523 108.26,140.023 110.5,141C 113.53,144.068 117.03,144.901 121,143.5C 121.816,144.823 122.983,145.489 124.5,145.5C 126.179,145.285 127.179,145.952 127.5,147.5C 126.833,147.5 126.167,147.5 125.5,147.5C 122.997,146.629 120.33,145.963 117.5,145.5C 113.129,144.041 108.796,142.374 104.5,140.5C 103.833,140.5 103.5,140.167 103.5,139.5 Z"/></g>
<g><path style="opacity:1" fill="#3d7b82" d="M 117.5,145.5 C 120.33,145.963 122.997,146.629 125.5,147.5C 123.143,147.663 120.81,147.497 118.5,147C 117.944,146.617 117.611,146.117 117.5,145.5 Z"/></g>
<g><path style="opacity:1" fill="#9aaf45" d="M 85.5,126.5 C 88.8761,129.878 92.5428,132.878 96.5,135.5C 96.9731,136.906 97.9731,137.573 99.5,137.5C 100.605,138.6 101.938,139.267 103.5,139.5C 103.5,140.167 103.833,140.5 104.5,140.5C 104.414,141.496 104.748,142.329 105.5,143C 104.5,143.333 103.5,143.667 102.5,144C 104.462,145.6 106.628,145.767 109,144.5C 111.407,145.63 113.907,146.463 116.5,147C 115.117,148.461 115.451,149.294 117.5,149.5C 117.843,151.483 117.176,152.817 115.5,153.5C 114.833,153.5 114.167,153.5 113.5,153.5C 108.782,151.131 104.115,148.298 99.5,145C 96.9564,143.519 95.2897,141.352 94.5,138.5C 93.3717,137.738 92.2051,137.071 91,136.5C 91.0258,132.695 89.1924,130.695 85.5,130.5C 85.5,129.167 85.5,127.833 85.5,126.5 Z"/></g>
<g><path style="opacity:1" fill="#317274" d="M 125.5,147.5 C 126.167,147.5 126.833,147.5 127.5,147.5C 129.948,148.473 132.615,148.806 135.5,148.5C 137.5,149.167 139.5,149.833 141.5,150.5C 139.167,150.5 136.833,150.5 134.5,150.5C 131.921,149.772 129.254,149.272 126.5,149C 125.944,148.617 125.611,148.117 125.5,147.5 Z"/></g>
<g><path style="opacity:1" fill="#5e8460" d="M 166.5,147.5 C 166.5,147.833 166.5,148.167 166.5,148.5C 165.778,148.918 165.278,149.584 165,150.5C 163.301,149.594 161.467,149.261 159.5,149.5C 159.5,149.167 159.5,148.833 159.5,148.5C 161.903,148.552 164.236,148.219 166.5,147.5 Z"/></g>
<g><path style="opacity:1" fill="#7ea149" d="M 104.5,140.5 C 108.796,142.374 113.129,144.041 117.5,145.5C 117.611,146.117 117.944,146.617 118.5,147C 120.81,147.497 123.143,147.663 125.5,147.5C 125.611,148.117 125.944,148.617 126.5,149C 129.254,149.272 131.921,149.772 134.5,150.5C 142.677,151.639 151.011,151.639 159.5,150.5C 156.316,152.414 152.649,153.08 148.5,152.5C 139.082,153.28 130.082,151.947 121.5,148.5C 120.151,148.846 118.817,149.179 117.5,149.5C 115.451,149.294 115.117,148.461 116.5,147C 113.907,146.463 111.407,145.63 109,144.5C 106.628,145.767 104.462,145.6 102.5,144C 103.5,143.667 104.5,143.333 105.5,143C 104.748,142.329 104.414,141.496 104.5,140.5 Z"/></g>
<g><path style="opacity:1" fill="#8aa82b" d="M 172.5,153.5 C 171.115,154.614 169.615,155.614 168,156.5C 167.87,160.951 167.204,165.284 166,169.5C 165.824,166.118 165.324,162.785 164.5,159.5C 163.667,163.5 162.833,167.5 162,171.5C 159.41,170.622 157.077,170.622 155,171.5C 152.967,173.846 151.134,176.846 149.5,180.5C 147.433,181.134 145.6,182.134 144,183.5C 143.5,182.333 142.667,181.5 141.5,181C 142.712,179.893 142.379,179.393 140.5,179.5C 145.141,174.867 150.141,170.533 155.5,166.5C 156.782,164.821 157.782,162.987 158.5,161C 152.509,160.501 146.509,160.334 140.5,160.5C 133.352,158.281 126.019,156.781 118.5,156C 117.429,155.148 116.429,154.315 115.5,153.5C 117.176,152.817 117.843,151.483 117.5,149.5C 118.817,149.179 120.151,148.846 121.5,148.5C 130.082,151.947 139.082,153.28 148.5,152.5C 147.081,153.451 145.415,153.784 143.5,153.5C 143.5,154.5 143.5,155.5 143.5,156.5C 141.473,156.338 139.473,156.505 137.5,157C 143.907,159.797 150.573,160.297 157.5,158.5C 163.04,157.301 166.04,153.967 166.5,148.5C 166.5,148.167 166.5,147.833 166.5,147.5C 167.167,147.5 167.833,147.5 168.5,147.5C 169.583,147.461 170.583,147.127 171.5,146.5C 172.474,148.743 172.808,151.076 172.5,153.5 Z"/></g>
<g><path style="opacity:1" fill="#7a9827" d="M 166.5,148.5 C 166.04,153.967 163.04,157.301 157.5,158.5C 150.573,160.297 143.907,159.797 137.5,157C 139.473,156.505 141.473,156.338 143.5,156.5C 143.5,155.5 143.5,154.5 143.5,153.5C 145.415,153.784 147.081,153.451 148.5,152.5C 152.649,153.08 156.316,152.414 159.5,150.5C 159.5,150.167 159.5,149.833 159.5,149.5C 161.467,149.261 163.301,149.594 165,150.5C 165.278,149.584 165.778,148.918 166.5,148.5 Z"/></g>
<g><path style="opacity:1" fill="#5c8c69" d="M 159.5,149.5 C 159.5,149.833 159.5,150.167 159.5,150.5C 151.011,151.639 142.677,151.639 134.5,150.5C 136.833,150.5 139.167,150.5 141.5,150.5C 147.491,150.034 153.491,149.701 159.5,149.5 Z"/></g>
<g><path style="opacity:1" fill="#136393" d="M 135.5,148.5 C 143.5,148.5 151.5,148.5 159.5,148.5C 159.5,148.833 159.5,149.167 159.5,149.5C 153.491,149.701 147.491,150.034 141.5,150.5C 139.5,149.833 137.5,149.167 135.5,148.5 Z"/></g>
<g><path style="opacity:1" fill="#a6c12a" d="M 113.5,153.5 C 114.167,153.5 114.833,153.5 115.5,153.5C 116.429,154.315 117.429,155.148 118.5,156C 126.019,156.781 133.352,158.281 140.5,160.5C 142.561,163.049 143.561,166.049 143.5,169.5C 141.61,169.703 140.11,169.037 139,167.5C 136.977,169.769 136.144,172.436 136.5,175.5C 137.675,175.281 138.675,175.614 139.5,176.5C 139.043,177.298 138.376,177.631 137.5,177.5C 135.249,175.64 132.582,173.473 129.5,171C 127.846,170.392 126.179,169.892 124.5,169.5C 123.167,169.167 121.833,168.833 120.5,168.5C 117.039,165.931 113.372,163.597 109.5,161.5C 109.423,160.25 108.756,159.417 107.5,159C 110.856,158.785 114.189,158.785 117.5,159C 114.785,158.125 113.452,156.292 113.5,153.5 Z"/></g>
<g><path style="opacity:1" fill="#fdfedb" d="M 107.5,161.5 C 108.167,161.5 108.833,161.5 109.5,161.5C 113.372,163.597 117.039,165.931 120.5,168.5C 115.68,166.926 111.347,164.593 107.5,161.5 Z"/></g>
<g><path style="opacity:1" fill="#95b22c" d="M 140.5,160.5 C 146.509,160.334 152.509,160.501 158.5,161C 157.782,162.987 156.782,164.821 155.5,166.5C 150.141,170.533 145.141,174.867 140.5,179.5C 138.973,179.573 137.973,178.906 137.5,177.5C 138.376,177.631 139.043,177.298 139.5,176.5C 138.675,175.614 137.675,175.281 136.5,175.5C 136.144,172.436 136.977,169.769 139,167.5C 140.11,169.037 141.61,169.703 143.5,169.5C 143.561,166.049 142.561,163.049 140.5,160.5 Z"/></g>
<g><path style="opacity:1" fill="#86a531" d="M 172.5,153.5 C 172.665,157.182 172.499,160.848 172,164.5C 169.842,167.123 168.342,170.123 167.5,173.5C 167.167,173.833 166.833,174.167 166.5,174.5C 165.833,173.5 165.167,172.5 164.5,171.5C 163.385,173.489 163.718,175.322 165.5,177C 164.333,179.833 163.167,182.667 162,185.5C 158.434,188.699 154.6,191.533 150.5,194C 148.455,194.49 146.455,194.323 144.5,193.5C 144.923,191.219 144.256,189.552 142.5,188.5C 140.737,185.98 138.737,183.647 136.5,181.5C 132.806,177.14 128.806,173.14 124.5,169.5C 126.179,169.892 127.846,170.392 129.5,171C 132.582,173.473 135.249,175.64 137.5,177.5C 137.973,178.906 138.973,179.573 140.5,179.5C 142.379,179.393 142.712,179.893 141.5,181C 142.667,181.5 143.5,182.333 144,183.5C 145.6,182.134 147.433,181.134 149.5,180.5C 151.134,176.846 152.967,173.846 155,171.5C 157.077,170.622 159.41,170.622 162,171.5C 162.833,167.5 163.667,163.5 164.5,159.5C 165.324,162.785 165.824,166.118 166,169.5C 167.204,165.284 167.87,160.951 168,156.5C 169.615,155.614 171.115,154.614 172.5,153.5 Z"/></g>
<g><path style="opacity:1" fill="#ebf2d6" d="M 173.5,146.5 C 174.117,146.611 174.617,146.944 175,147.5C 175.966,158.973 175.133,170.306 172.5,181.5C 171.331,183.42 170.331,185.42 169.5,187.5C 169.043,188.298 168.376,188.631 167.5,188.5C 172.983,175.062 174.983,161.062 173.5,146.5 Z"/></g>
<g><path style="opacity:1" fill="#769834" d="M 171.5,145.5 C 172.492,145.328 173.158,145.662 173.5,146.5C 174.983,161.062 172.983,175.062 167.5,188.5C 163.255,195.42 158.588,202.087 153.5,208.5C 152.5,209.167 151.5,209.833 150.5,210.5C 149.152,209.814 147.985,208.814 147,207.5C 146.333,210.167 145.667,210.167 145,207.5C 144.501,202.845 144.334,198.179 144.5,193.5C 146.455,194.323 148.455,194.49 150.5,194C 154.6,191.533 158.434,188.699 162,185.5C 163.167,182.667 164.333,179.833 165.5,177C 163.718,175.322 163.385,173.489 164.5,171.5C 165.167,172.5 165.833,173.5 166.5,174.5C 166.833,174.167 167.167,173.833 167.5,173.5C 168.342,170.123 169.842,167.123 172,164.5C 172.499,160.848 172.665,157.182 172.5,153.5C 172.808,151.076 172.474,148.743 171.5,146.5C 170.583,147.127 169.583,147.461 168.5,147.5C 168.821,145.952 169.821,145.285 171.5,145.5 Z"/></g>
<g><path style="opacity:1" fill="#f6fbe4" d="M 136.5,181.5 C 138.737,183.647 140.737,185.98 142.5,188.5C 143.702,193.977 143.702,199.311 142.5,204.5C 142.5,200.5 142.5,196.5 142.5,192.5C 141.5,192.5 140.5,192.5 139.5,192.5C 139.5,188.507 138.5,184.841 136.5,181.5 Z"/></g>
<g><path style="opacity:1" fill="#f2fae1" d="M 167.5,188.5 C 167.683,193.795 165.516,197.795 161,200.5C 159.68,204.319 157.18,206.985 153.5,208.5C 158.588,202.087 163.255,195.42 167.5,188.5 Z"/></g>
<g><path style="opacity:1" fill="#6d8e3a" d="M 142.5,188.5 C 144.256,189.552 144.923,191.219 144.5,193.5C 144.334,198.179 144.501,202.845 145,207.5C 145.667,210.167 146.333,210.167 147,207.5C 147.985,208.814 149.152,209.814 150.5,210.5C 149.5,212.833 147.833,214.5 145.5,215.5C 143.052,217.284 140.385,218.618 137.5,219.5C 137.5,218.5 137.5,217.5 137.5,216.5C 140.256,212.983 141.923,208.983 142.5,204.5C 143.702,199.311 143.702,193.977 142.5,188.5 Z"/></g>
<g><path style="opacity:1" fill="#658042" d="M 145.5,215.5 C 138.792,222.365 131.125,228.032 122.5,232.5C 122.167,232.333 121.833,232.167 121.5,232C 127.363,227.302 132.697,222.135 137.5,216.5C 137.5,217.5 137.5,218.5 137.5,219.5C 140.385,218.618 143.052,217.284 145.5,215.5 Z"/></g>
</svg>
